#Comment line ignore any data following # character 
#Hierarchical Translation and Rotation (.htr) file 
[Header]	
#Header keywords are followed by a single value 
FileType HTR		#Single word string
DataType HTRS		#Translation followed by rotation and scale data
FileVersion 1		#integer
NumSegments 84		#integer
NumFrames 2		#integer
DataFrameRate 30		#integer, data frame rate in this file
EulerRotationOrder ZYX
CalibrationUnits mm
RotationUnits Degrees
GlobalAxisofGravity Y
BoneLengthAxis Y
ScaleFactor 1.00
[SegmentNames&Hierarchy]
#CHILD	PARENT
MASTER GLOBAL
root MASTER
chest root
L_mid_tent01 root
R_mid_tent01 root
spine01 root
Bip01_Neck chest
L_humerus chest
R_humerus chest
weapon_bone chest
Bip01_Head Bip01_Neck
eye_left_bone Bip01_Head
eye_right_bone Bip01_Head
L_forearm L_humerus
L_front_hand L_forearm
L_weapon_bone L_forearm
L_front_hand01_01 L_front_hand
L_front_hand02_01 L_front_hand
L_front_hand03_01 L_front_hand
L_front_hand01_02 L_front_hand01_01
L_front_hand02_02 L_front_hand02_01
L_front_hand03_02 L_front_hand03_01
R_forearm R_humerus
R_front_hand R_forearm
R_weapon_bone R_forearm
R_front_hand01_01 R_front_hand
R_front_hand02_01 R_front_hand
R_front_hand03_01 R_front_hand
R_front_hand01_02 R_front_hand01_01
R_front_hand02_02 R_front_hand02_01
R_front_hand03_02 R_front_hand03_01
null_rope01_connect L_mid_tent01
Rope1_Seg01 null_rope01_connect
Rope1_Seg02 Rope1_Seg01
Rope1_Seg03 Rope1_Seg02
Rope1_Seg04 Rope1_Seg03
Rope1_Seg05 Rope1_Seg04
Rope1_Seg06 Rope1_Seg05
Rope1_Seg07 Rope1_Seg06
Rope1_Seg09 Rope1_Seg07
L_mid_hand01 Rope1_Seg09
L_mid_hand02 Rope1_Seg09
L_mid_hand03 Rope1_Seg09
null_rope02_connect R_mid_tent01
Rope2_Seg01 null_rope02_connect
Rope2_Seg02 Rope2_Seg01
Rope2_Seg03 Rope2_Seg02
Rope2_Seg04 Rope2_Seg03
Rope2_Seg05 Rope2_Seg04
Rope2_Seg06 Rope2_Seg05
Rope2_Seg07 Rope2_Seg06
Rope2_Seg09 Rope2_Seg07
R_mid_hand01 Rope2_Seg09
R_mid_hand02 Rope2_Seg09
R_mid_hand03 Rope2_Seg09
spine02 spine01
spine03 spine02
pelvis spine03
null_rope03_connect pelvis
null_rope04_connect pelvis
Rope3_Seg01 null_rope03_connect
Rope3_Seg02 Rope3_Seg01
Rope3_Seg03 Rope3_Seg02
Rope3_Seg04 Rope3_Seg03
Rope3_Seg05 Rope3_Seg04
Rope3_Seg06 Rope3_Seg05
Rope3_Seg07 Rope3_Seg06
Rope3_Seg08 Rope3_Seg07
Rope3_Seg09 Rope3_Seg08
R_rear_hand01 Rope3_Seg09
R_rear_hand02 Rope3_Seg09
R_rear_hand03 Rope3_Seg09
Rope4_Seg01 null_rope04_connect
Rope4_Seg02 Rope4_Seg01
Rope4_Seg03 Rope4_Seg02
Rope4_Seg04 Rope4_Seg03
Rope4_Seg05 Rope4_Seg04
Rope4_Seg06 Rope4_Seg05
Rope4_Seg07 Rope4_Seg06
Rope4_Seg08 Rope4_Seg07
Rope4_Seg09 Rope4_Seg08
L_rear_hand01 Rope4_Seg09
L_rear_hand02 Rope4_Seg09
L_rear_hand03 Rope4_Seg09
[BasePosition]
#SegmentName Tx, Ty, Tz, Rx, Ry, Rz, BoneLength
MASTER 0.000000 0.000000 0.000000 -90.000000 0.000000 0.000000 10.000000 
root 0.000000 0.000000 0.000000 0.000000 0.000000 0.000000 10.000000 
chest 0.000000 0.000000 0.000000 0.000000 0.000000 0.000000 10.000000 
L_mid_tent01 0.000000 0.000000 0.000000 0.000000 0.000000 0.000000 10.000000 
R_mid_tent01 0.000000 0.000000 0.000000 0.000000 0.000000 0.000000 10.000000 
spine01 0.000000 0.000000 0.000000 0.000000 0.000000 0.000000 10.000000 
Bip01_Neck 0.000000 0.000000 0.000000 0.000000 0.000000 0.000000 10.000000 
L_humerus 0.000000 0.000000 0.000000 0.000000 0.000000 0.000000 10.000000 
R_humerus 0.000000 0.000000 0.000000 0.000000 0.000000 0.000000 10.000000 
weapon_bone 0.000000 0.000000 0.000000 0.000000 0.000000 0.000000 10.000000 
Bip01_Head 0.000000 0.000000 0.000000 0.000000 0.000000 0.000000 10.000000 
eye_left_bone 0.000000 0.000000 0.000000 0.000000 0.000000 0.000000 10.000000 
eye_right_bone 0.000000 0.000000 0.000000 0.000000 0.000000 0.000000 10.000000 
L_forearm 0.000000 0.000000 0.000000 0.000000 0.000000 0.000000 10.000000 
L_front_hand 0.000000 0.000000 0.000000 0.000000 0.000000 0.000000 10.000000 
L_weapon_bone 0.000000 0.000000 0.000000 0.000000 0.000000 0.000000 10.000000 
L_front_hand01_01 0.000000 0.000000 0.000000 0.000000 0.000000 0.000000 10.000000 
L_front_hand02_01 0.000000 0.000000 0.000000 0.000000 0.000000 0.000000 10.000000 
L_front_hand03_01 0.000000 0.000000 0.000000 0.000000 0.000000 0.000000 10.000000 
L_front_hand01_02 0.000000 0.000000 0.000000 0.000000 0.000000 0.000000 10.000000 
L_front_hand02_02 0.000000 0.000000 0.000000 0.000000 0.000000 0.000000 10.000000 
L_front_hand03_02 0.000000 0.000000 0.000000 0.000000 0.000000 0.000000 10.000000 
R_forearm 0.000000 0.000000 0.000000 0.000000 0.000000 0.000000 10.000000 
R_front_hand 0.000000 0.000000 0.000000 0.000000 0.000000 0.000000 10.000000 
R_weapon_bone 0.000000 0.000000 0.000000 0.000000 0.000000 0.000000 10.000000 
R_front_hand01_01 0.000000 0.000000 0.000000 0.000000 0.000000 0.000000 10.000000 
R_front_hand02_01 0.000000 0.000000 0.000000 0.000000 0.000000 0.000000 10.000000 
R_front_hand03_01 0.000000 0.000000 0.000000 0.000000 0.000000 0.000000 10.000000 
R_front_hand01_02 0.000000 0.000000 0.000000 0.000000 0.000000 0.000000 10.000000 
R_front_hand02_02 0.000000 0.000000 0.000000 0.000000 0.000000 0.000000 10.000000 
R_front_hand03_02 0.000000 0.000000 0.000000 0.000000 0.000000 0.000000 10.000000 
null_rope01_connect 0.000000 0.000000 0.000000 0.000000 0.000000 0.000000 10.000000 
Rope1_Seg01 0.000000 0.000000 0.000000 0.000000 0.000000 0.000000 10.000000 
Rope1_Seg02 0.000000 0.000000 0.000000 0.000000 0.000000 0.000000 10.000000 
Rope1_Seg03 0.000000 0.000000 0.000000 0.000000 0.000000 0.000000 10.000000 
Rope1_Seg04 0.000000 0.000000 0.000000 0.000000 0.000000 0.000000 10.000000 
Rope1_Seg05 0.000000 0.000000 0.000000 0.000000 0.000000 0.000000 10.000000 
Rope1_Seg06 0.000000 0.000000 0.000000 0.000000 0.000000 0.000000 10.000000 
Rope1_Seg07 0.000000 0.000000 0.000000 0.000000 0.000000 0.000000 10.000000 
Rope1_Seg09 0.000000 0.000000 0.000000 0.000000 0.000000 0.000000 10.000000 
L_mid_hand01 0.000000 0.000000 0.000000 0.000000 0.000000 0.000000 10.000000 
L_mid_hand02 0.000000 0.000000 0.000000 0.000000 0.000000 0.000000 10.000000 
L_mid_hand03 0.000000 0.000000 0.000000 0.000000 0.000000 0.000000 10.000000 
null_rope02_connect 0.000000 0.000000 0.000000 0.000000 0.000000 0.000000 10.000000 
Rope2_Seg01 0.000000 0.000000 0.000000 0.000000 0.000000 0.000000 10.000000 
Rope2_Seg02 0.000000 0.000000 0.000000 0.000000 0.000000 0.000000 10.000000 
Rope2_Seg03 0.000000 0.000000 0.000000 0.000000 0.000000 0.000000 10.000000 
Rope2_Seg04 0.000000 0.000000 0.000000 0.000000 0.000000 0.000000 10.000000 
Rope2_Seg05 0.000000 0.000000 0.000000 0.000000 0.000000 0.000000 10.000000 
Rope2_Seg06 0.000000 0.000000 0.000000 0.000000 0.000000 0.000000 10.000000 
Rope2_Seg07 0.000000 0.000000 0.000000 0.000000 0.000000 0.000000 10.000000 
Rope2_Seg09 0.000000 0.000000 0.000000 0.000000 0.000000 0.000000 10.000000 
R_mid_hand01 0.000000 0.000000 0.000000 0.000000 0.000000 0.000000 10.000000 
R_mid_hand02 0.000000 0.000000 0.000000 0.000000 0.000000 0.000000 10.000000 
R_mid_hand03 0.000000 0.000000 0.000000 0.000000 0.000000 0.000000 10.000000 
spine02 0.000000 0.000000 0.000000 0.000000 0.000000 0.000000 10.000000 
spine03 0.000000 0.000000 0.000000 0.000000 0.000000 0.000000 10.000000 
pelvis 0.000000 0.000000 0.000000 0.000000 0.000000 0.000000 10.000000 
null_rope03_connect 0.000000 0.000000 0.000000 0.000000 0.000000 0.000000 10.000000 
null_rope04_connect 0.000000 0.000000 0.000000 0.000000 0.000000 0.000000 10.000000 
Rope3_Seg01 0.000000 0.000000 0.000000 0.000000 0.000000 0.000000 10.000000 
Rope3_Seg02 0.000000 0.000000 0.000000 0.000000 0.000000 0.000000 10.000000 
Rope3_Seg03 0.000000 0.000000 0.000000 0.000000 0.000000 0.000000 10.000000 
Rope3_Seg04 0.000000 0.000000 0.000000 0.000000 0.000000 0.000000 10.000000 
Rope3_Seg05 0.000000 0.000000 0.000000 0.000000 0.000000 0.000000 10.000000 
Rope3_Seg06 0.000000 0.000000 0.000000 0.000000 0.000000 0.000000 10.000000 
Rope3_Seg07 0.000000 0.000000 0.000000 0.000000 0.000000 0.000000 10.000000 
Rope3_Seg08 0.000000 0.000000 0.000000 0.000000 0.000000 0.000000 10.000000 
Rope3_Seg09 0.000000 0.000000 0.000000 0.000000 0.000000 0.000000 10.000000 
R_rear_hand01 0.000000 0.000000 0.000000 0.000000 0.000000 0.000000 10.000000 
R_rear_hand02 0.000000 0.000000 0.000000 0.000000 0.000000 0.000000 10.000000 
R_rear_hand03 0.000000 0.000000 0.000000 0.000000 0.000000 0.000000 10.000000 
Rope4_Seg01 0.000000 0.000000 0.000000 0.000000 0.000000 0.000000 10.000000 
Rope4_Seg02 0.000000 0.000000 0.000000 0.000000 0.000000 0.000000 10.000000 
Rope4_Seg03 0.000000 0.000000 0.000000 0.000000 0.000000 0.000000 10.000000 
Rope4_Seg04 0.000000 0.000000 0.000000 0.000000 0.000000 0.000000 10.000000 
Rope4_Seg05 0.000000 0.000000 0.000000 0.000000 0.000000 0.000000 10.000000 
Rope4_Seg06 0.000000 0.000000 0.000000 0.000000 0.000000 0.000000 10.000000 
Rope4_Seg07 0.000000 0.000000 0.000000 0.000000 0.000000 0.000000 10.000000 
Rope4_Seg08 0.000000 0.000000 0.000000 0.000000 0.000000 0.000000 10.000000 
Rope4_Seg09 0.000000 0.000000 0.000000 0.000000 0.000000 0.000000 10.000000 
L_rear_hand01 0.000000 0.000000 0.000000 0.000000 0.000000 0.000000 10.000000 
L_rear_hand02 0.000000 0.000000 0.000000 0.000000 0.000000 0.000000 10.000000 
L_rear_hand03 0.000000 0.000000 0.000000 0.000000 0.000000 0.000000 10.000000 
#Beginning of Data. Separated by tabs
#Fr	Tx	Ty	Tz	Rx	Ry	Rz	SF
[MASTER]
19 -146.227249 3991.642822 0.000000 0.001660 0.001660 0.001660 3994.320313
20 -146.612442 3622.383057 0.000000 0.001660 0.001660 0.001660 3625.348877
[root]
19 -62.161560 -62.821960 1500.031372 -46.358570 -18.108511 -115.566284 1502.632568
20 -82.748978 -62.821960 1500.045532 -41.088409 -16.081059 -120.113274 1503.639038
[chest]
19 -84.512650 -34.090519 0.000000 7.730140 -5.316518 133.794876 91.129311
20 -84.512650 -34.090519 0.000000 7.578480 -3.555240 129.412064 91.129311
[L_mid_tent01]
19 27.299442 22.177544 -249.918274 82.264641 52.041531 162.838394 252.381149
20 27.299444 22.177546 -249.918274 86.085701 49.694523 167.597046 252.381149
[R_mid_tent01]
19 23.228794 24.509907 226.238495 163.557541 -27.167719 79.495178 228.744751
20 23.228794 24.509907 226.238495 163.179657 -26.944233 80.328217 228.744751
[spine01]
19 -0.361383 -0.195265 0.000000 0.001845 0.001451 13.654368 0.410763
20 -0.361383 -0.195265 0.000000 0.001845 0.001451 13.654368 0.410763
[Bip01_Neck]
19 165.484543 71.581718 0.000119 176.643677 -1.657967 43.431911 180.302734
20 165.484543 71.581718 0.000119 176.643677 -1.657967 43.431911 180.302734
[L_humerus]
19 -13.983130 -135.272980 -120.471481 -135.112549 64.049545 -39.090950 181.680161
20 -13.983130 -135.272980 -120.471481 -137.342224 62.552677 -41.316334 181.680161
[R_humerus]
19 -13.983309 -135.273102 125.287651 116.033852 -27.662189 -7.062508 184.909012
20 -13.983309 -135.273102 125.287651 117.860008 -26.978964 -9.004761 184.909012
[weapon_bone]
19 235.964890 -300.705902 0.000000 0.000000 -89.951546 -128.212341 382.234833
20 235.964890 -300.705902 0.000000 0.000000 -89.951546 -128.212341 382.234833
[Bip01_Head]
19 213.444321 185.715469 11.776983 7.999592 1.070625 -3.087054 283.173798
20 213.444321 185.715469 11.776983 8.004299 0.846616 -0.172109 283.173798
[eye_left_bone]
19 -24.626970 125.451866 -64.772606 0.000000 -90.000000 -99.840431 143.318359
20 -24.626970 125.451866 -64.772606 0.000000 -90.000000 -99.840431 143.318359
[eye_right_bone]
19 -24.626970 125.451866 64.327362 0.000000 -89.965736 80.156380 143.117676
20 -24.626970 125.451866 64.327362 0.000000 -89.965736 80.156380 143.117676
[L_forearm]
19 322.776093 0.000000 -0.000119 0.000331 -0.002324 -106.218994 322.776093
20 322.776093 0.000000 -0.000119 0.000331 -0.002324 -106.225182 322.776093
[L_front_hand]
19 241.149185 -0.042021 -3.300071 149.893951 -1.837326 -27.423067 241.171753
20 241.149185 -0.042021 -3.300071 149.893951 -1.837326 -27.423067 241.171753
[L_weapon_bone]
19 156.183838 0.000000 0.000000 0.000014 0.000007 0.000001 156.183838
20 156.183838 0.000000 0.000000 0.000014 0.000007 0.000001 156.183838
[L_front_hand01_01]
19 86.095154 20.947098 -0.655860 -0.289102 -0.524108 66.611092 88.609184
20 86.095154 20.947098 -0.655860 -0.298084 -0.518635 67.679581 88.609184
[L_front_hand02_01]
19 86.935165 -11.437475 24.513514 142.580521 -55.269005 -47.395390 91.046425
20 86.935165 -11.437475 24.513514 143.833725 -55.908619 -48.913998 91.046425
[L_front_hand03_01]
19 86.637497 -14.123976 -20.424902 -142.879883 53.494289 -49.392002 90.126129
20 86.637497 -14.123976 -20.424902 -144.057922 54.129482 -50.849693 90.126129
[L_front_hand01_02]
19 71.020905 -0.000179 0.000030 0.000317 -0.002326 -105.524834 71.020905
20 71.020905 -0.000179 0.000030 0.000320 -0.002325 -105.655235 71.020905
[L_front_hand02_02]
19 71.020927 -0.000119 0.000060 0.000317 -0.002326 -105.524834 71.020927
20 71.020927 -0.000119 0.000060 0.000320 -0.002325 -105.655235 71.020927
[L_front_hand03_02]
19 71.020905 -0.000060 0.000060 0.000317 -0.002326 -105.524834 71.020905
20 71.020905 -0.000060 0.000060 0.000320 -0.002325 -105.655235 71.020905
[R_forearm]
19 322.776428 -0.000060 0.000030 0.210404 -0.041550 -79.505768 322.776428
20 322.776428 -0.000060 0.000030 0.205924 -0.047740 -77.824142 322.776428
[R_front_hand]
19 238.847015 -0.006795 2.210259 -8.879457 -10.642941 -26.315098 238.857239
20 238.847015 -0.006795 2.210259 -8.879458 -10.642942 -26.315100 238.857239
[R_weapon_bone]
19 155.664093 0.002503 -0.000030 0.003487 0.001180 -90.988930 155.664078
20 155.664093 0.002503 -0.000030 0.003487 0.001180 -90.988930 155.664078
[R_front_hand01_01]
19 87.624611 14.231146 22.918642 -141.083969 -54.436916 45.672497 91.683487
20 87.624611 14.231146 22.918642 -143.936417 -55.959175 49.146500 91.683487
[R_front_hand02_01]
19 89.356956 14.367283 -19.491137 141.813004 52.852688 48.289940 92.579636
20 89.356956 14.367283 -19.491137 144.531738 54.354271 51.666687 92.579636
[R_front_hand03_01]
19 87.286232 -22.307278 -0.143439 0.082367 -0.444902 -65.508446 90.091743
20 87.286232 -22.307278 -0.143439 0.103016 -0.441569 -68.007950 90.091743
[R_front_hand01_02]
19 71.020905 0.000060 0.000119 0.002323 -0.000334 106.381714 71.020905
20 71.020905 0.000060 0.000119 0.002323 -0.000334 106.381714 71.020905
[R_front_hand02_02]
19 71.020844 -0.000030 -0.000119 0.002323 -0.000334 106.381714 71.020836
20 71.020844 -0.000030 -0.000119 0.002323 -0.000334 106.381714 71.020836
[R_front_hand03_02]
19 71.020905 0.000000 0.000030 0.002323 -0.000334 106.381714 71.020905
20 71.020905 0.000000 0.000030 0.002323 -0.000334 106.381714 71.020905
[null_rope01_connect]
19 328.732483 0.000000 -0.000238 -130.122498 -29.822092 106.832779 328.732483
20 328.732483 0.000000 -0.000238 -129.117279 -30.229700 98.713730 328.732483
[Rope1_Seg01]
19 -0.000033 0.000029 0.000114 110.078598 -9.445717 96.121124 0.000123
20 -0.000033 0.000028 0.000112 125.471863 -21.039955 91.408882 0.000120
[Rope1_Seg02]
19 139.999863 -0.000179 0.000000 -6.638983 -9.509329 5.721143 139.999863
20 139.999863 -0.000179 0.000000 0.014503 -1.477527 1.688147 139.999863
[Rope1_Seg03]
19 139.999924 0.000060 -0.000060 -24.125427 -13.709218 6.183788 139.999924
20 139.999924 0.000060 -0.000060 0.019826 -2.031955 2.321351 139.999924
[Rope1_Seg04]
19 139.999924 -0.000060 -0.000119 12.223446 4.482946 0.710918 139.999924
20 139.999924 -0.000060 -0.000119 0.124538 -3.646070 4.224397 139.999924
[Rope1_Seg05]
19 139.999832 0.000119 -0.000060 7.110774 4.016126 -0.477533 139.999832
20 139.999832 0.000119 -0.000060 1.756170 -7.843611 9.281949 139.999832
[Rope1_Seg06]
19 139.999954 0.000119 -0.000060 2.129966 1.411887 -0.288707 139.999954
20 139.999954 0.000119 -0.000060 -3.470055 2.229829 -3.416744 139.999954
[Rope1_Seg07]
19 139.999985 0.000060 0.000000 1.211809 0.864514 -0.211784 139.999985
20 139.999985 0.000060 0.000000 -0.978176 2.861357 -3.560709 139.999985
[Rope1_Seg09]
19 121.602913 0.000119 -0.000089 -89.793175 -1.359789 0.847147 121.602913
20 121.602913 0.000119 -0.000089 -89.793175 -1.359789 0.847147 121.602913
[L_mid_hand01]
19 103.859421 1.038730 8.195221 110.331230 -44.470791 -15.085362 104.187431
20 103.859421 1.038730 8.195221 111.331635 -47.044144 -16.484426 104.187431
[L_mid_hand02]
19 105.572853 -4.139662 -10.864139 -148.937714 33.668667 -42.029247 106.211075
20 105.572853 -4.139662 -10.864139 -150.562561 35.052639 -44.910461 106.211075
[L_mid_hand03]
19 104.641464 17.579376 -3.913581 -13.360329 13.301841 47.989174 106.179977
20 104.641464 17.579376 -3.913581 -12.713109 13.922001 50.749584 106.179977
[null_rope02_connect]
19 328.732849 0.000179 -0.000119 -150.853180 35.713715 -25.390070 328.732849
20 328.732849 0.000179 -0.000119 -153.776810 32.318142 -30.842533 328.732849
[Rope2_Seg01]
19 0.000048 0.000114 0.000000 -54.797024 -18.278854 77.173164 0.000124
20 0.000048 0.000112 0.000000 -49.798805 -10.730044 91.445328 0.000122
[Rope2_Seg02]
19 139.999741 -0.000060 -0.000119 6.208031 -1.674695 10.073822 139.999756
20 139.999741 -0.000060 -0.000119 4.445170 2.876063 3.648862 139.999756
[Rope2_Seg03]
19 140.000107 0.000030 0.000000 1.906058 -2.154470 3.473955 140.000107
20 140.000107 0.000030 0.000000 3.196742 2.557808 2.577367 140.000107
[Rope2_Seg04]
19 139.999802 0.000000 -0.000060 4.871635 3.115826 4.597094 139.999802
20 139.999802 0.000000 -0.000060 1.760214 2.055411 1.235408 139.999802
[Rope2_Seg05]
19 139.999985 -0.000060 0.000119 5.669729 6.271070 4.876129 139.999985
20 139.999985 -0.000060 0.000119 3.320354 2.409110 3.184693 139.999985
[Rope2_Seg06]
19 139.999893 -0.000030 -0.000119 2.849204 3.799600 2.719891 139.999893
20 139.999893 -0.000030 -0.000119 4.262426 2.765296 4.397681 139.999893
[Rope2_Seg07]
19 139.999893 0.000060 -0.000060 1.692963 2.558444 1.736514 139.999893
20 139.999893 0.000060 -0.000060 2.757886 2.195047 2.835545 139.999893
[Rope2_Seg09]
19 121.338966 0.000089 -0.000060 33.793236 -1.359788 -0.847141 121.338966
20 121.338966 0.000089 -0.000060 33.793236 -1.359788 -0.847141 121.338966
[R_mid_hand01]
19 104.680779 11.144459 -10.335981 -36.495327 32.739502 38.894321 105.778534
20 104.680779 11.144459 -10.335981 -37.023243 32.123154 37.917080 105.778534
[R_mid_hand02]
19 104.070427 2.443552 8.231699 69.926315 -43.736977 14.713633 104.424065
20 104.070427 2.443552 8.231699 70.253304 -42.771339 14.235763 104.424065
[R_mid_hand03]
19 106.028137 -11.221827 -5.996406 -170.196442 12.469418 -48.616356 106.788818
20 106.028137 -11.221827 -5.996406 -169.973053 12.289117 -47.575344 106.788818
[spine02]
19 129.756927 0.001550 0.000119 -1.023899 -3.926965 6.770993 129.756927
20 129.756927 0.001550 0.000119 -1.023899 -3.926965 6.770993 129.756927
[spine03]
19 78.613846 0.087372 -4.898873 1.040681 4.146420 4.212376 78.766380
20 78.613846 0.087372 -4.898873 1.040681 4.146420 4.212376 78.766380
[pelvis]
19 169.435242 0.051022 0.000000 0.019518 -0.190233 -10.721436 169.435257
20 169.435242 0.051022 0.000000 0.019518 -0.190233 -10.721436 169.435257
[null_rope03_connect]
19 -1.257226 -2.466202 137.391083 -10.525400 -48.440540 114.332161 137.418976
20 -1.257226 -2.466202 137.391083 -11.887487 -42.557850 117.028091 137.418976
[null_rope04_connect]
19 -1.259640 -2.480268 -137.844437 -10.525400 -48.440540 114.332161 137.872513
20 -1.259640 -2.480268 -137.844437 -11.887487 -42.557850 117.028091 137.872513
[Rope3_Seg01]
19 -0.000026 0.000019 -0.000038 14.477800 -0.506525 131.867676 0.000050
20 -0.000026 0.000024 -0.000040 15.208977 -0.514054 127.338249 0.000054
[Rope3_Seg02]
19 139.999924 -0.000119 0.000060 0.504840 -20.249184 -15.924105 139.999924
20 139.999924 -0.000119 0.000060 1.664302 -6.637029 -15.140305 139.999924
[Rope3_Seg03]
19 139.999924 -0.000119 0.000119 2.907498 -20.428965 -9.196980 139.999924
20 139.999924 -0.000119 0.000119 0.596985 -6.299242 -9.711446 139.999924
[Rope3_Seg04]
19 139.999924 0.000119 0.000000 -3.288974 3.079486 -11.220860 139.999924
20 139.999924 0.000119 0.000000 -0.263876 -2.290558 -8.786999 139.999924
[Rope3_Seg05]
19 139.999924 -0.000238 0.000060 -5.489333 9.530964 -7.550884 139.999924
20 139.999924 -0.000238 0.000060 -1.140766 1.341757 -6.187571 139.999924
[Rope3_Seg06]
19 139.999893 -0.000119 -0.000060 -1.417373 2.943085 -3.028451 139.999893
20 139.999893 -0.000119 -0.000060 -0.329118 0.501993 -3.224805 139.999893
[Rope3_Seg07]
19 139.999771 0.000060 -0.000119 -0.672515 1.845346 -1.928471 139.999771
20 139.999771 0.000060 -0.000119 0.018411 0.165228 -2.105278 139.999771
[Rope3_Seg08]
19 139.999985 -0.000060 0.000000 -0.192983 1.142221 -1.167528 139.999985
20 139.999985 -0.000060 0.000000 0.208219 0.102956 -1.308777 139.999985
[Rope3_Seg09]
19 90.185997 -0.000179 -0.000060 89.793228 -1.359877 -0.847183 90.185997
20 90.185997 -0.000179 -0.000060 89.793228 -1.359877 -0.847183 90.185997
[R_rear_hand01]
19 103.366196 -6.073594 -10.757982 -164.915863 19.747875 -40.821388 104.101845
20 103.366196 -6.073594 -10.757982 -164.755127 19.627697 -40.352161 104.101845
[R_rear_hand02]
19 100.509819 12.039542 -7.992327 -30.611040 25.017698 38.577400 101.543350
20 100.509819 12.039542 -7.992327 -30.792652 24.782450 38.141541 101.543350
[R_rear_hand03]
19 101.539970 5.215704 5.435467 82.396400 -41.501785 8.918382 101.819031
20 101.539970 5.215704 5.435467 82.448357 -41.048256 8.840384 101.819031
[Rope4_Seg01]
19 0.000000 0.000000 0.000000 -84.381004 1.046515 139.343124 0.000000
20 0.000000 0.000000 0.000000 -81.674339 5.192384 136.786636 0.000000
[Rope4_Seg02]
19 139.999985 0.000060 0.000119 -14.027966 11.873224 -6.505392 139.999985
20 139.999985 0.000060 0.000119 -12.228345 16.372086 -5.528058 139.999985
[Rope4_Seg03]
19 139.999924 0.000000 -0.000238 -19.519524 35.307365 -13.283998 139.999924
20 139.999924 0.000000 -0.000238 -8.605804 32.913082 -3.671829 139.999924
[Rope4_Seg04]
19 139.999985 0.000000 0.000119 1.416479 0.499592 5.386212 139.999985
20 139.999985 0.000000 0.000119 -0.007616 22.162712 -0.176171 139.999985
[Rope4_Seg05]
19 139.999802 -0.000060 -0.000119 1.115897 -4.563492 1.853058 139.999802
20 139.999802 -0.000060 -0.000119 -0.023644 -8.781880 -1.673111 139.999802
[Rope4_Seg06]
19 139.999924 0.000000 0.000060 0.412723 -0.772240 0.651726 139.999924
20 139.999924 0.000000 0.000060 0.118735 -1.892130 -0.499874 139.999924
[Rope4_Seg07]
19 139.999802 0.000000 0.000000 0.336251 -0.479284 0.410751 139.999802
20 139.999802 0.000000 0.000000 0.141234 -0.507445 -0.246251 139.999802
[Rope4_Seg08]
19 139.999924 0.000000 0.000119 -1.329389 -0.287284 0.247350 139.999924
20 139.999924 0.000000 0.000119 -1.447094 -0.301861 -0.142910 139.999924
[Rope4_Seg09]
19 90.185791 0.000060 0.000060 -135.617828 2.228885 0.850567 90.185791
20 90.185791 0.000060 0.000060 -135.617828 2.228885 0.850567 90.185791
[L_rear_hand01]
19 101.696655 -8.392275 -7.654577 -27.588615 -28.361088 134.712082 102.329041
20 101.696655 -8.392275 -7.654577 -26.201536 -29.631567 131.847122 102.329041
[L_rear_hand02]
19 102.726799 -1.568258 5.773216 81.431313 48.300438 169.720108 102.900848
20 102.726799 -1.568258 5.773216 80.925568 51.072418 169.054459 102.900848
[L_rear_hand03]
19 104.552910 9.721220 -10.420293 -167.421646 -21.393103 -132.057709 105.519653
20 104.552910 9.721220 -10.420293 -168.512375 -21.976343 -129.102875 105.519653
